<?xml version="1.0" encoding="UTF-8"?>
<svg width="64" height="64" viewBox="0 0 64 64" fill="none" xmlns="http://www.w3.org/2000/svg">
  <!-- Gradient Background -->
  <defs>
    <linearGradient id="grad1" x1="0%" y1="0%" x2="100%" y2="100%">
      <stop offset="0%" style="stop-color:#4F46E5;stop-opacity:1" />
      <stop offset="100%" style="stop-color:#6366F1;stop-opacity:1" />
    </linearGradient>
  </defs>
  
  <!-- Background Circle with Gradient -->
  <circle cx="32" cy="32" r="32" fill="url(#grad1)"/>
  
  <!-- Modern Book Design -->
  <path d="M44 20H24C22.8954 20 22 20.8954 22 22V42C22 43.1046 22.8954 44 24 44H44C45.1046 44 46 43.1046 46 42V22C46 20.8954 45.1046 20 44 20Z" fill="white"/>
  
  <!-- Book Pages -->
  <path d="M24 20V44" stroke="#4F46E5" stroke-width="3"/>
  <path d="M28 24H40" stroke="#4F46E5" stroke-width="2" stroke-linecap="round"/>
  <path d="M28 28H40" stroke="#4F46E5" stroke-width="2" stroke-linecap="round"/>
  <path d="M28 32H40" stroke="#4F46E5" stroke-width="2" stroke-linecap="round"/>
  
  <!-- Modern Graduation Cap -->
  <path d="M32 16L40 20L32 24L24 20L32 16Z" fill="white"/>
  <path d="M24 20V28" stroke="white" stroke-width="3"/>
  <path d="M40 20V28" stroke="white" stroke-width="3"/>
  
  <!-- Connection Line -->
  <path d="M24 28H40" stroke="white" stroke-width="3"/>
  
  <!-- Decorative Elements -->
  <circle cx="32" cy="32" r="30" stroke="white" stroke-width="1" stroke-opacity="0.2"/>
  <circle cx="32" cy="32" r="26" stroke="white" stroke-width="1" stroke-opacity="0.1"/>
</svg> 